<svg width="40" height="40" viewBox="0 0 40 40" fill="none" xmlns="http://www.w3.org/2000/svg">
<path d="M3.07692 1.53834C3.07692 2.38801 2.38813 3.0768 1.53846 3.0768C0.688793 3.0768 0 2.38801 0 1.53834C0 0.688671 0.688793 -0.00012207 1.53846 -0.00012207C2.38813 -0.00012207 3.07692 0.688671 3.07692 1.53834Z" fill="#808080" fill-opacity="0.3"/>
<path d="M3.07692 19.9999C3.07692 20.8495 2.38813 21.5383 1.53846 21.5383C0.688793 21.5383 0 20.8495 0 19.9999C0 19.1502 0.688793 18.4614 1.53846 18.4614C2.38813 18.4614 3.07692 19.1502 3.07692 19.9999Z" fill="#808080" fill-opacity="0.3"/>
<path d="M3.07692 10.7691C3.07692 11.6188 2.38813 12.3076 1.53846 12.3076C0.688793 12.3076 0 11.6188 0 10.7691C0 9.91944 0.688793 9.23065 1.53846 9.23065C2.38813 9.23065 3.07692 9.91944 3.07692 10.7691Z" fill="#808080" fill-opacity="0.3"/>
<path d="M3.07692 29.2306C3.07692 30.0803 2.38813 30.7691 1.53846 30.7691C0.688793 30.7691 0 30.0803 0 29.2306C0 28.381 0.688793 27.6922 1.53846 27.6922C2.38813 27.6922 3.07692 28.381 3.07692 29.2306Z" fill="#808080" fill-opacity="0.3"/>
<path d="M3.07692 38.4614C3.07692 39.3111 2.38813 39.9999 1.53846 39.9999C0.688793 39.9999 0 39.3111 0 38.4614C0 37.6117 0.688793 36.923 1.53846 36.923C2.38813 36.923 3.07692 37.6117 3.07692 38.4614Z" fill="#808080" fill-opacity="0.3"/>
<path d="M12.3077 1.53834C12.3077 2.38801 11.6189 3.0768 10.7692 3.0768C9.91956 3.0768 9.23077 2.38801 9.23077 1.53834C9.23077 0.688671 9.91956 -0.00012207 10.7692 -0.00012207C11.6189 -0.00012207 12.3077 0.688671 12.3077 1.53834Z" fill="#808080" fill-opacity="0.3"/>
<path d="M12.3077 19.9999C12.3077 20.8495 11.6189 21.5383 10.7692 21.5383C9.91956 21.5383 9.23077 20.8495 9.23077 19.9999C9.23077 19.1502 9.91956 18.4614 10.7692 18.4614C11.6189 18.4614 12.3077 19.1502 12.3077 19.9999Z" fill="#808080" fill-opacity="0.3"/>
<path d="M12.3077 10.7691C12.3077 11.6188 11.6189 12.3076 10.7692 12.3076C9.91956 12.3076 9.23077 11.6188 9.23077 10.7691C9.23077 9.91944 9.91956 9.23065 10.7692 9.23065C11.6189 9.23065 12.3077 9.91944 12.3077 10.7691Z" fill="#808080" fill-opacity="0.3"/>
<path d="M12.3077 29.2306C12.3077 30.0803 11.6189 30.7691 10.7692 30.7691C9.91956 30.7691 9.23077 30.0803 9.23077 29.2306C9.23077 28.381 9.91956 27.6922 10.7692 27.6922C11.6189 27.6922 12.3077 28.381 12.3077 29.2306Z" fill="#808080" fill-opacity="0.3"/>
<path d="M12.3077 38.4614C12.3077 39.3111 11.6189 39.9999 10.7692 39.9999C9.91956 39.9999 9.23077 39.3111 9.23077 38.4614C9.23077 37.6117 9.91956 36.923 10.7692 36.923C11.6189 36.923 12.3077 37.6117 12.3077 38.4614Z" fill="#808080" fill-opacity="0.3"/>
<path d="M21.5385 1.53834C21.5385 2.38801 20.8497 3.0768 20 3.0768C19.1503 3.0768 18.4615 2.38801 18.4615 1.53834C18.4615 0.688671 19.1503 -0.00012207 20 -0.00012207C20.8497 -0.00012207 21.5385 0.688671 21.5385 1.53834Z" fill="#808080" fill-opacity="0.3"/>
<path d="M21.5385 19.9999C21.5385 20.8495 20.8497 21.5383 20 21.5383C19.1503 21.5383 18.4615 20.8495 18.4615 19.9999C18.4615 19.1502 19.1503 18.4614 20 18.4614C20.8497 18.4614 21.5385 19.1502 21.5385 19.9999Z" fill="#808080" fill-opacity="0.3"/>
<path d="M21.5385 10.7691C21.5385 11.6188 20.8497 12.3076 20 12.3076C19.1503 12.3076 18.4615 11.6188 18.4615 10.7691C18.4615 9.91944 19.1503 9.23065 20 9.23065C20.8497 9.23065 21.5385 9.91944 21.5385 10.7691Z" fill="#808080" fill-opacity="0.3"/>
<path d="M21.5385 29.2306C21.5385 30.0803 20.8497 30.7691 20 30.7691C19.1503 30.7691 18.4615 30.0803 18.4615 29.2306C18.4615 28.381 19.1503 27.6922 20 27.6922C20.8497 27.6922 21.5385 28.381 21.5385 29.2306Z" fill="#808080" fill-opacity="0.3"/>
<path d="M30.7692 1.53834C30.7692 2.38801 30.0804 3.0768 29.2308 3.0768C28.3811 3.0768 27.6923 2.38801 27.6923 1.53834C27.6923 0.688671 28.3811 -0.00012207 29.2308 -0.00012207C30.0804 -0.00012207 30.7692 0.688671 30.7692 1.53834Z" fill="#808080" fill-opacity="0.3"/>
<path d="M30.7692 19.9999C30.7692 20.8495 30.0804 21.5383 29.2308 21.5383C28.3811 21.5383 27.6923 20.8495 27.6923 19.9999C27.6923 19.1502 28.3811 18.4614 29.2308 18.4614C30.0804 18.4614 30.7692 19.1502 30.7692 19.9999Z" fill="#808080" fill-opacity="0.3"/>
<path d="M30.7692 10.7691C30.7692 11.6188 30.0804 12.3076 29.2308 12.3076C28.3811 12.3076 27.6923 11.6188 27.6923 10.7691C27.6923 9.91944 28.3811 9.23065 29.2308 9.23065C30.0804 9.23065 30.7692 9.91944 30.7692 10.7691Z" fill="#808080" fill-opacity="0.3"/>
<path d="M30.7692 29.2306C30.7692 30.0803 30.0804 30.7691 29.2308 30.7691C28.3811 30.7691 27.6923 30.0803 27.6923 29.2306C27.6923 28.381 28.3811 27.6922 29.2308 27.6922C30.0804 27.6922 30.7692 28.381 30.7692 29.2306Z" fill="#808080" fill-opacity="0.3"/>
<path d="M40 1.53834C40 2.38801 39.3112 3.0768 38.4615 3.0768C37.6119 3.0768 36.9231 2.38801 36.9231 1.53834C36.9231 0.688671 37.6119 -0.00012207 38.4615 -0.00012207C39.3112 -0.00012207 40 0.688671 40 1.53834Z" fill="#808080" fill-opacity="0.3"/>
<path d="M40 10.7691C40 11.6188 39.3112 12.3076 38.4615 12.3076C37.6119 12.3076 36.9231 11.6188 36.9231 10.7691C36.9231 9.91944 37.6119 9.23065 38.4615 9.23065C39.3112 9.23065 40 9.91944 40 10.7691Z" fill="#808080" fill-opacity="0.3"/>
</svg>
