<svg width="40" height="40" viewBox="0 0 40 40" fill="none" xmlns="http://www.w3.org/2000/svg">
<path d="M38.4615 3.07692C37.6119 3.07692 36.9231 2.38813 36.9231 1.53846C36.9231 0.688793 37.6119 0 38.4615 0C39.3112 0 40 0.688793 40 1.53846C40 2.38813 39.3112 3.07692 38.4615 3.07692Z" fill="#808080" fill-opacity="0.3"/>
<path d="M20 3.07692C19.1503 3.07692 18.4615 2.38813 18.4615 1.53846C18.4615 0.688793 19.1503 0 20 0C20.8497 0 21.5385 0.688793 21.5385 1.53846C21.5385 2.38813 20.8497 3.07692 20 3.07692Z" fill="#808080" fill-opacity="0.3"/>
<path d="M29.2308 3.07692C28.3811 3.07692 27.6923 2.38813 27.6923 1.53846C27.6923 0.688793 28.3811 0 29.2308 0C30.0804 0 30.7692 0.688793 30.7692 1.53846C30.7692 2.38813 30.0804 3.07692 29.2308 3.07692Z" fill="#808080" fill-opacity="0.3"/>
<path d="M10.7692 3.07692C9.91956 3.07692 9.23077 2.38813 9.23077 1.53846C9.23077 0.688793 9.91956 0 10.7692 0C11.6189 0 12.3077 0.688793 12.3077 1.53846C12.3077 2.38813 11.6189 3.07692 10.7692 3.07692Z" fill="#808080" fill-opacity="0.3"/>
<path d="M1.53846 3.07692C0.688792 3.07692 -7.15256e-07 2.38813 -7.15256e-07 1.53846C-7.15256e-07 0.688793 0.688792 0 1.53846 0C2.38813 0 3.07692 0.688793 3.07692 1.53846C3.07692 2.38813 2.38813 3.07692 1.53846 3.07692Z" fill="#808080" fill-opacity="0.3"/>
<path d="M38.4615 12.3077C37.6119 12.3077 36.9231 11.6189 36.9231 10.7692C36.9231 9.91956 37.6119 9.23077 38.4615 9.23077C39.3112 9.23077 40 9.91956 40 10.7692C40 11.6189 39.3112 12.3077 38.4615 12.3077Z" fill="#808080" fill-opacity="0.3"/>
<path d="M20 12.3077C19.1503 12.3077 18.4615 11.6189 18.4615 10.7692C18.4615 9.91956 19.1503 9.23077 20 9.23077C20.8497 9.23077 21.5385 9.91956 21.5385 10.7692C21.5385 11.6189 20.8497 12.3077 20 12.3077Z" fill="#808080" fill-opacity="0.3"/>
<path d="M29.2308 12.3077C28.3811 12.3077 27.6923 11.6189 27.6923 10.7692C27.6923 9.91956 28.3811 9.23077 29.2308 9.23077C30.0804 9.23077 30.7692 9.91956 30.7692 10.7692C30.7692 11.6189 30.0804 12.3077 29.2308 12.3077Z" fill="#808080" fill-opacity="0.3"/>
<path d="M10.7692 12.3077C9.91956 12.3077 9.23077 11.6189 9.23077 10.7692C9.23077 9.91956 9.91956 9.23077 10.7692 9.23077C11.6189 9.23077 12.3077 9.91956 12.3077 10.7692C12.3077 11.6189 11.6189 12.3077 10.7692 12.3077Z" fill="#808080" fill-opacity="0.3"/>
<path d="M1.53846 12.3077C0.688792 12.3077 -7.15256e-07 11.6189 -7.15256e-07 10.7692C-7.15256e-07 9.91956 0.688792 9.23077 1.53846 9.23077C2.38813 9.23077 3.07692 9.91956 3.07692 10.7692C3.07692 11.6189 2.38813 12.3077 1.53846 12.3077Z" fill="#808080" fill-opacity="0.3"/>
<path d="M38.4615 21.5385C37.6119 21.5385 36.9231 20.8497 36.9231 20C36.9231 19.1503 37.6119 18.4615 38.4615 18.4615C39.3112 18.4615 40 19.1503 40 20C40 20.8497 39.3112 21.5385 38.4615 21.5385Z" fill="#808080" fill-opacity="0.3"/>
<path d="M20 21.5385C19.1503 21.5385 18.4615 20.8497 18.4615 20C18.4615 19.1503 19.1503 18.4615 20 18.4615C20.8497 18.4615 21.5385 19.1503 21.5385 20C21.5385 20.8497 20.8497 21.5385 20 21.5385Z" fill="#808080" fill-opacity="0.3"/>
<path d="M29.2308 21.5385C28.3811 21.5385 27.6923 20.8497 27.6923 20C27.6923 19.1503 28.3811 18.4615 29.2308 18.4615C30.0804 18.4615 30.7692 19.1503 30.7692 20C30.7692 20.8497 30.0804 21.5385 29.2308 21.5385Z" fill="#808080" fill-opacity="0.3"/>
<path d="M10.7692 21.5385C9.91956 21.5385 9.23077 20.8497 9.23077 20C9.23077 19.1503 9.91956 18.4615 10.7692 18.4615C11.6189 18.4615 12.3077 19.1503 12.3077 20C12.3077 20.8497 11.6189 21.5385 10.7692 21.5385Z" fill="#808080" fill-opacity="0.3"/>
<path d="M38.4615 30.7692C37.6119 30.7692 36.9231 30.0804 36.9231 29.2308C36.9231 28.3811 37.6119 27.6923 38.4615 27.6923C39.3112 27.6923 40 28.3811 40 29.2308C40 30.0804 39.3112 30.7692 38.4615 30.7692Z" fill="#808080" fill-opacity="0.3"/>
<path d="M20 30.7692C19.1503 30.7692 18.4615 30.0804 18.4615 29.2308C18.4615 28.3811 19.1503 27.6923 20 27.6923C20.8497 27.6923 21.5385 28.3811 21.5385 29.2308C21.5385 30.0804 20.8497 30.7692 20 30.7692Z" fill="#808080" fill-opacity="0.3"/>
<path d="M29.2308 30.7692C28.3811 30.7692 27.6923 30.0804 27.6923 29.2308C27.6923 28.3811 28.3811 27.6923 29.2308 27.6923C30.0804 27.6923 30.7692 28.3811 30.7692 29.2308C30.7692 30.0804 30.0804 30.7692 29.2308 30.7692Z" fill="#808080" fill-opacity="0.3"/>
<path d="M10.7692 30.7692C9.91956 30.7692 9.23077 30.0804 9.23077 29.2308C9.23077 28.3811 9.91956 27.6923 10.7692 27.6923C11.6189 27.6923 12.3077 28.3811 12.3077 29.2308C12.3077 30.0804 11.6189 30.7692 10.7692 30.7692Z" fill="#808080" fill-opacity="0.3"/>
<path d="M38.4615 40C37.6119 40 36.9231 39.3112 36.9231 38.4615C36.9231 37.6119 37.6119 36.9231 38.4615 36.9231C39.3112 36.9231 40 37.6119 40 38.4615C40 39.3112 39.3112 40 38.4615 40Z" fill="#808080" fill-opacity="0.3"/>
<path d="M29.2308 40C28.3811 40 27.6923 39.3112 27.6923 38.4615C27.6923 37.6119 28.3811 36.9231 29.2308 36.9231C30.0804 36.9231 30.7692 37.6119 30.7692 38.4615C30.7692 39.3112 30.0804 40 29.2308 40Z" fill="#808080" fill-opacity="0.3"/>
</svg>
