<svg width="17" height="17" viewBox="0 0 17 17" fill="none" xmlns="http://www.w3.org/2000/svg">
<path d="M12.7568 5.36852C12.7568 4.63552 12.1525 4.03552 11.4143 4.03552H10.0719C9.70228 4.03552 9.40015 4.33552 9.40015 4.70152C9.40015 5.06852 9.70228 5.36852 10.0719 5.36852H11.4143V7.13552L9.07788 10.0355H6.71424V7.36852C6.71424 7.00152 6.41211 6.70152 6.04351 6.70152H4.02832C3.67557 6.70139 3.32624 6.77029 3.00031 6.90427C2.67438 7.03825 2.37824 7.2347 2.1288 7.48238C1.87936 7.73006 1.68152 8.02412 1.54659 8.34775C1.41166 8.67138 1.34228 9.01825 1.34241 9.36852V10.7015C1.34241 11.0685 1.64454 11.3685 2.01414 11.3685H2.68486C2.68486 12.4755 3.5852 13.3685 4.69905 13.3685C5.8139 13.3685 6.71323 12.4755 6.71323 11.3685H9.07688C9.48676 11.3685 9.86946 11.1815 10.1243 10.8685L12.4607 7.96852C12.6551 7.72852 12.7558 7.43452 12.7558 7.13552L12.7568 5.36852ZM4.70005 12.0355C4.52224 12.0347 4.35195 11.9642 4.2263 11.8392C4.10066 11.7143 4.02986 11.5451 4.02933 11.3685H5.37178C5.37178 11.7355 5.06966 12.0355 4.70005 12.0355Z" fill="#B3B3B3"/>
<path d="M4.02842 4.70154H6.0426C6.41221 4.70154 6.71433 5.00154 6.71433 5.36854C6.71433 5.73454 6.41221 6.03454 6.04361 6.03454H4.02842C3.8506 6.03401 3.68021 5.96371 3.55438 5.83895C3.42855 5.71419 3.35749 5.5451 3.35669 5.36854C3.35669 5.00154 3.65882 4.70154 4.02842 4.70154ZM12.7579 9.36754C11.643 9.36754 10.7437 10.2615 10.7437 11.3675C10.7437 12.4745 11.643 13.3675 12.7579 13.3675C13.8727 13.3675 14.7721 12.4745 14.7721 11.3675C14.7721 10.2615 13.8727 9.36754 12.7579 9.36754ZM12.7579 12.0345C12.5799 12.034 12.4094 11.9636 12.2835 11.8386C12.1576 11.7136 12.0867 11.5443 12.0862 11.3675C12.0862 11.0015 12.3883 10.7015 12.7579 10.7015C13.1275 10.7015 13.4296 11.0015 13.4296 11.3675C13.4296 11.7345 13.1275 12.0345 12.7579 12.0345Z" fill="#B3B3B3"/>
</svg>
