<svg width="18" height="17" viewBox="0 0 18 17" fill="none" xmlns="http://www.w3.org/2000/svg">
<path d="M2.68214 4.41068C3.05645 4.41068 3.36326 4.12432 3.36326 3.77496V3.1383C3.36429 2.78799 3.6711 2.50163 4.04541 2.50163H4.72755C5.10186 2.50163 5.40867 2.21527 5.40867 1.86592C5.40867 1.51561 5.10186 1.22925 4.72755 1.22925H4.04541C2.91327 1.22925 2 2.08164 2 3.1383V3.77496C2 4.12432 2.30681 4.41068 2.68214 4.41068ZM4.72755 13.9559H4.04541C3.86483 13.9554 3.6918 13.8883 3.56402 13.7692C3.43623 13.6501 3.36407 13.4887 3.36326 13.3202V12.6835C3.36326 12.3332 3.05645 12.0478 2.68214 12.0478C2.30681 12.0478 2 12.3342 2 12.6835V13.3202C2 14.3769 2.91327 15.2292 4.04541 15.2292H4.72755C5.10186 15.2292 5.40867 14.9429 5.40867 14.5926C5.40867 14.2423 5.10186 13.9569 4.72755 13.9569V13.9559ZM14.9546 1.22925H14.2735C13.8981 1.22925 13.5913 1.51561 13.5913 1.86592C13.5913 2.21527 13.8981 2.50163 14.2735 2.50163H14.9546C15.3299 2.50163 15.6367 2.78799 15.6367 3.1383V3.77496C15.6367 4.12432 15.9435 4.41068 16.3189 4.41068C16.6932 4.41068 17 4.12432 17 3.77496V3.1383C17 2.08164 16.0867 1.22925 14.9546 1.22925ZM16.3189 12.0469C15.9435 12.0469 15.6367 12.3332 15.6367 12.6835V13.3202C15.6367 13.6705 15.3299 13.9569 14.9546 13.9569H14.2735C13.8981 13.9569 13.5913 14.2432 13.5913 14.5926C13.5913 14.9429 13.8981 15.2292 14.2735 15.2292H14.9546C16.0867 15.2292 17 14.3769 17 13.3202V12.6835C17 12.3332 16.6932 12.0478 16.3189 12.0478V12.0469ZM14.2714 10.0557V6.40277C14.2714 5.9446 14.0127 5.52461 13.5903 5.3022L10.1806 3.46952C9.97392 3.35632 9.73862 3.29665 9.49898 3.29665C9.25934 3.29665 9.02403 3.35632 8.81734 3.46952L5.40867 5.29457C4.98527 5.52365 4.72653 5.94364 4.72653 6.40181V10.0548C4.72653 10.5129 4.98527 10.9329 5.40867 11.1553L8.81734 12.988C9.02403 13.1012 9.25934 13.1609 9.49898 13.1609C9.73862 13.1609 9.97392 13.1012 10.1806 12.988L13.5913 11.1563C13.7992 11.0456 13.9718 10.8854 14.0915 10.692C14.2111 10.4987 14.2736 10.2791 14.2724 10.0557H14.2714ZM8.81734 11.519L6.08979 10.0557V7.10912L8.81734 8.59149V11.519ZM9.49949 7.49092L6.79955 6.02096L9.49949 4.57008L12.1994 6.02096L9.49949 7.49092ZM12.9082 10.0557L10.1806 11.519V8.59149L12.9082 7.10912V10.0557Z" fill="#B3B3B3"/>
</svg>
