<svg width="24" height="24" viewBox="0 0 24 24" fill="none" xmlns="http://www.w3.org/2000/svg">
<path d="M6.04989 8.04997C4.74067 9.35941 4.00352 11.1342 3.99977 12.9858C3.99602 14.8375 4.72598 16.6152 6.02989 17.93C7.49989 14.53 10.1199 11.69 13.3899 9.99997C10.5675 12.3881 8.66221 15.6826 7.99989 19.32C10.5999 20.55 13.7999 20.1 15.9499 17.95C18.9399 14.96 19.7799 6.80997 19.9599 4.56997C19.9662 4.4988 19.9567 4.42711 19.9323 4.35996C19.9079 4.29281 19.8691 4.23183 19.8185 4.18131C19.768 4.13079 19.707 4.09195 19.6399 4.06753C19.5727 4.04311 19.5011 4.0337 19.4299 4.03997C17.1899 4.21997 9.03989 5.05997 6.04989 8.04997Z" fill="url(#paint0_linear_4_20)"/>
<defs>
<linearGradient id="paint0_linear_4_20" x1="11.9808" y1="4.03809" x2="11.9808" y2="19.9944" gradientUnits="userSpaceOnUse">
<stop stop-color="#FFBB00"/>
<stop offset="1" stop-color="#E3AA0D"/>
</linearGradient>
</defs>
</svg>
